:SAMPLES-PER-SECOND 30
:FULLY-SPECIFIED
:DEGREES
461
root  -30.0244 38.5286 25.8486 -176.553 7.39119 173.011
RightUpLeg  -17.5195 -10.1129 -23.4212
RightLeg  36.6467 -11.9517 -9.63049
RightFoot  0.789761 -2.02029 18.9043
RightToes  -1.74624e-010 0 -3.6325e-017
Spine  14.5956 6.64614 7.26913
Spine1  13.6204 6.5705 4.6708
HEad  -16.9103 -16.7639 -2.10452
LeftShoulder1  0.751313 -0.492739 -11.6338
LeftArm  17.9243 23.8287 -52.32
LeftForeArm  37.8981 -75.6938 -46.7573
LeftHand  -2.2076 -2.59996 31.6016
RightShoulder  1.19198 1.74469 16.0572
RightArm  10.9727 8.01036 60.1777
RightForeArm  20.4921 76.7146 109.49
RightHand  -2.37338 3.0887 -31.9309
LeftUpLeg  -14.7037 -3.13802 5.4282
LeftLeg  21.3558 -7.75503 -2.98873
LeftFoot  -13.1399 -0.260457 -21.3529
LeftToes  -5.82109e-011 1.10366e-010 -8.03124e-011
462
root  -30.1315 38.6012 25.8015 -176.395 8.5139 173.825
RightUpLeg  -19.1885 -11.4752 -22.1172
RightLeg  37.1993 -8.55037 -7.15867
RightFoot  0.727523 -2.08448 19.5902
RightToes  -1.74624e-010 0 -3.6325e-017
Spine  14.5637 6.08879 5.01627
Spine1  13.5521 5.59977 4.89644
HEad  -17.9636 -14.7209 -1.20568
LeftShoulder1  0.71158 -0.305027 -11.5021
LeftArm  16.811 20.5092 -53.0936
LeftForeArm  41.4108 -76.3322 -49.5856
LeftHand  -2.15367 -2.59174 30.9017
RightShoulder  1.32919 2.14761 16.9354
RightArm  12.9832 3.43369 58.8271
RightForeArm  23.5483 76.6223 110.555
RightHand  -1.90076 1.84704 -30.075
LeftUpLeg  -14.5217 -3.48202 6.06008
LeftLeg  21.3806 -6.40616 -2.40607
LeftFoot  -13.1617 -0.26355 -21.2934
LeftToes  -5.82109e-011 1.10366e-010 -8.03124e-011
463
root  -30.1547 38.617 25.7599 -176.521 9.76666 174.586
RightUpLeg  -20.5306 -12.3453 -21.4555
RightLeg  37.9254 -7.05055 -6.12355
RightFoot  0.835397 -2.19172 20.3968
RightToes  -1.74624e-010 0 -3.6325e-017
Spine  14.3528 5.33834 2.86931
Spine1  13.9856 4.4565 4.92471
HEad  -18.6888 -12.281 -0.650891
LeftShoulder1  0.676568 -0.144692 -11.3486
LeftArm  15.415 17.1643 -53.7997
LeftForeArm  44.8116 -76.8758 -52.3117
LeftHand  -2.12043 -2.55874 30.5688
RightShoulder  1.38715 2.36698 17.0466
RightArm  14.6979 0.637163 57.9734
RightForeArm  31.6905 76.5412 111.628
RightHand  -1.76956 1.74864 -28.4633
LeftUpLeg  -14.1357 -2.88616 6.84104
LeftLeg  21.7995 -5.83827 -2.21927
LeftFoot  -13.5235 -0.338501 -21.745
LeftToes  -5.82109e-011 1.10366e-010 -8.03124e-011
464
root  -30.1052 38.6075 25.7225 -177.02 10.9518 175.108
RightUpLeg  -21.1133 -12.6186 -21.6915
RightLeg  38.3054 -8.39506 -7.30715
RightFoot  1.83201 -2.35727 20.3349
RightToes  -1.74624e-010 0 -3.6325e-017
Spine  14.2986 4.61191 0.894663
Spine1  14.4229 3.3828 4.87623
HEad  -18.8828 -9.9343 -0.291609
LeftShoulder1  0.674984 -0.137153 -11.341
LeftArm  14.4965 13.1503 -54.3404
LeftForeArm  45.164 -76.8993 -52.3615
LeftHand  -2.06682 -2.40814 30.381
RightShoulder  1.38657 2.40227 16.8799
RightArm  15.989 -0.816601 57.1841
RightForeArm  42.551 76.4926 113.001
RightHand  -1.78434 2.07656 -27.4694
LeftUpLeg  -13.3208 -1.87727 7.50456
LeftLeg  22.1847 -5.95858 -2.32325
LeftFoot  -14.0449 -0.447089 -22.2381
LeftToes  -5.82109e-011 1.10366e-010 -8.03124e-011
465
root  -29.9904 38.5523 25.6894 -177.688 11.8303 175.359
RightUpLeg  -21.0592 -12.6771 -22.6692
RightLeg  38.1033 -10.7483 -9.16523
RightFoot  3.63493 -2.54247 19.37
RightToes  -1.74624e-010 0 -3.6325e-017
Spine  14.35 3.94871 -0.498705
Spine1  14.7032 2.59946 4.38553
HEad  -18.9202 -8.00454 0.219471
LeftShoulder1  0.724651 -0.399018 -11.3762
LeftArm  14.436 8.21287 -54.7777
LeftForeArm  42.3323 -76.3393 -49.2582
LeftHand  -1.95141 -2.11042 29.8458
RightShoulder  1.37261 2.41922 16.5493
RightArm  16.3383 -1.74476 56.215
RightForeArm  53.2753 76.3293 115.793
RightHand  -1.71579 1.93364 -26.9522
LeftUpLeg  -12.6137 -0.944258 7.91778
LeftLeg  22.9546 -6.19343 -2.52825
LeftFoot  -14.4668 -0.520976 -22.0099
LeftToes  -5.82109e-011 1.10366e-010 -8.03124e-011
466
root  -29.7977 38.426 25.6547 -178.389 12.394 175.419
RightUpLeg  -20.6058 -12.6821 -23.9386
RightLeg  37.4485 -12.1471 -10.0585
RightFoot  5.70399 -2.7235 18.2963
RightToes  -1.74624e-010 0 -3.6325e-017
Spine  14.2059 3.23695 -1.22193
Spine1  15.1575 2.05103 3.24634
HEad  -19.096 -6.32709 0.812234
LeftShoulder1  0.800538 -0.875832 -11.0649
LeftArm  14.8818 3.04919 -55.3986
LeftForeArm  39.6 -75.568 -45.3985
LeftHand  -1.79577 -1.89059 28.3624
RightShoulder  1.36136 2.50698 15.9727
RightArm  16.023 -2.41171 55.316
RightForeArm  63.3403 76.0283 119.453
RightHand  -1.69515 1.964 -26.5404
LeftUpLeg  -12.2743 -0.289144 8.21589
LeftLeg  24.3413 -6.0928 -2.65825
LeftFoot  -14.7161 -0.542855 -21.1826
LeftToes  -5.82109e-011 1.10366e-010 -8.03124e-011
467
root  -29.4927 38.2615 25.6102 -179.123 12.934 175.284
RightUpLeg  -19.959 -12.4408 -25.1158
RightLeg  36.5495 -11.9338 -9.59044
RightFoot  7.69827 -2.90522 17.5176
RightToes  -1.74624e-010 0 -3.6325e-017
Spine  13.6923 2.58898 -1.94231
Spine1  15.9228 1.56752 2.09896
HEad  -19.243 -4.66968 1.09688
LeftShoulder1  0.861007 -1.36559 -10.4
LeftArm  15.341 -1.34633 -56.3994
LeftForeArm  38.5929 -75.0295 -42.9032
LeftHand  -1.61493 -1.84309 25.7745
RightShoulder  1.33546 2.54596 15.3404
RightArm  15.7038 -2.5998 54.5551
RightForeArm  72.3861 75.6504 123.106
RightHand  -1.76025 2.42321 -25.9716
LeftUpLeg  -11.8582 -0.121683 8.55257
LeftLeg  25.6514 -5.65244 -2.60137
LeftFoot  -14.9364 -0.567707 -20.7092
LeftToes  -5.82109e-011 1.10366e-010 -8.03124e-011
